<svg xmlns="http://www.w3.org/2000/svg" viewBox="0 0 933.95 933.95"><defs><style>.cls-1{fill:#fdfdfd;}.cls-2{fill:#fff;}.cls-3{fill:#f5f4ff;}.cls-4,.cls-5{fill:none;stroke:#000;stroke-miterlimit:10;}.cls-5{stroke-width:3px;}</style></defs><title>Asset 1</title><g id="Layer_2" data-name="Layer 2"><g id="Layer_2-2" data-name="Layer 2"><path d="M791.48,632s-87,154-139,151l-1.07-.17L693.82,520H475.51c23.41,0,49.47-9.51,75-38,14.55-16.26,30.15-34.45,45.69-53C597.46,428.68,714.9,402.19,791.48,632Z"/><path class="cls-1" d="M291.17,783,251.91,520H693.82L651.41,782.85,643.48,832h-345ZM522.62,676c0-23.39-22.27-42.35-49.75-42.35s-49.76,19-49.76,42.35,22.28,42.35,49.76,42.35S522.62,699.38,522.62,676Z"/><path class="cls-2" d="M596.17,429c-15.54,18.55-31.14,36.74-45.69,53-8-41-31.2-48-31.2-48l8-8.15a23.88,23.88,0,0,0,9.39-9.59L604.48,347l48-172c31,34,57,112.89,57,112.89S653.25,360.84,596.17,429Z"/><path d="M644.48,69c23,61,8,106,8,106l-48,172-67.84,69.31a24,24,0,0,0-26.22-34.77c6.17-69.27,24.94-198.93,81.06-268.54C611.48,89,644.48,69,644.48,69ZM574,326.48a11.25,11.25,0,1,0-11.25,11.25A11.25,11.25,0,0,0,574,326.48Z"/><circle class="cls-2" cx="562.73" cy="326.48" r="11.25"/><path class="cls-2" d="M539.48,405a23.83,23.83,0,0,1-2.84,11.31l-9.39,9.59a23.93,23.93,0,0,1-19.76,1.73c.07-2.72.62-20.18,2.93-46.09A24,24,0,0,1,539.48,405Z"/><path class="cls-2" d="M527.25,425.88l9.39-9.59A23.88,23.88,0,0,1,527.25,425.88Z"/><path d="M519.28,434s23.2,7,31.2,48c-25.5,28.51-51.56,38-75,38-46.81,0-83-38-83-38,1-24,30-47,30-47l-12.07-14.27.55-.47A24,24,0,0,0,441.09,426c.14,1,.26,2,.39,3,0,0,25.5-21,66-1,0,0,0-.12,0-.37a23.93,23.93,0,0,0,19.76-1.73Z"/><path class="cls-2" d="M591.48,113c-56.12,69.61-74.89,199.27-81.06,268.54A24,24,0,0,0,491.48,405c-16.59-9.14-38,0-38,0a24,24,0,0,0-18.15-23.27c-34.06-254.41-53.67-278.63-59.77-278.86C494.61,37.86,591.48,113,591.48,113Z"/><path class="cls-3" d="M472.87,633.64c27.48,0,49.75,19,49.75,42.35s-22.27,42.35-49.75,42.35-49.76-19-49.76-42.35S445.39,633.64,472.87,633.64Z"/><path class="cls-2" d="M510.42,381.52c-2.31,25.91-2.86,43.37-2.93,46.09a24,24,0,0,1,2.93-46.09Z"/><path class="cls-2" d="M507.49,427.61c0,.25,0,.37,0,.37-40.5-20-66,1-66,1-.13-1-.25-2-.39-3a24,24,0,0,0,12.39-21s21.41-9.14,38,0A24,24,0,0,0,507.49,427.61Z"/><path d="M475.51,520H251.91l39.26,263C251,782.25,157.48,632,157.48,632c59-185,188.87-203,188.87-203l46.13,53S428.7,520,475.51,520Z"/><path class="cls-2" d="M435.33,381.71A24,24,0,0,1,441.09,426Q438.15,402.75,435.33,381.71Z"/><path class="cls-2" d="M435.33,381.71q2.82,21.06,5.76,44.26a24,24,0,0,1-35.61-21,24,24,0,0,1,24-24A23.5,23.5,0,0,1,435.33,381.71Z"/><path d="M435.33,381.71a23.5,23.5,0,0,0-5.85-.73A24,24,0,0,0,411,420.24l-.55.47L345.48,344l-47-169c-20-96-7-114-7-114,51,12,82,43,82,43h0c.69-.38,1.38-.76,2.07-1.12C381.66,103.08,401.27,127.3,435.33,381.71Zm-41.85-55.23A12.5,12.5,0,1,0,381,339,12.5,12.5,0,0,0,393.48,326.48Z"/><path class="cls-2" d="M410.41,420.71,422.48,435s-29,23-30,47l-46.13-53L224.48,289c25-70,74-114,74-114l47,169Z"/><circle class="cls-2" cx="380.98" cy="326.48" r="12.5"/><path class="cls-2" d="M375.56,102.85c-.69.36-1.38.74-2.07,1.12A2.38,2.38,0,0,1,375.56,102.85Z"/><path class="cls-4" d="M373.48,104s-31-31-82-43c0,0-13,18,7,114,0,0-49,44-74,114L346.35,429l46.13,53s36.22,38,83,38c23.41,0,49.47-9.51,75-38,14.55-16.26,30.15-34.45,45.69-53,57.08-68.14,113.31-141.11,113.31-141.11s-26-78.89-57-112.89c0,0,15-45-8-106,0,0-33,20-53,44,0,0-96.87-75.12-215.92-10.13-.69.36-1.38.74-2.07,1.12"/><path class="cls-4" d="M298.48,175l47,169,64.93,76.73L422.48,435s-29,23-30,47"/><path class="cls-4" d="M373.48,104h0a2.38,2.38,0,0,1,2.07-1.12c6.1.23,25.71,24.45,59.77,278.86q2.82,21.06,5.76,44.26c.14,1,.26,2,.39,3,0,0,25.5-21,66-1,0,0,0-.12,0-.37.07-2.72.62-20.18,2.93-46.09,6.17-69.27,24.94-198.93,81.06-268.54"/><path class="cls-4" d="M652.48,175l-48,172-67.84,69.31-9.39,9.59-8,8.15s23.2,7,31.2,48"/><circle class="cls-4" cx="380.98" cy="326.48" r="12.5"/><circle class="cls-4" cx="562.73" cy="326.48" r="11.25"/><path class="cls-5" d="M453.48,405a24,24,0,1,1-24-24,23.5,23.5,0,0,1,5.85.73A24,24,0,0,1,453.48,405Z"/><path class="cls-5" d="M510.42,381.52a24,24,0,0,1,16.83,44.36,23.93,23.93,0,0,1-19.76,1.73,24,24,0,0,1,2.93-46.09Z"/><path class="cls-5" d="M453.48,405s21.41-9.14,38,0"/><path class="cls-4" d="M353.48,131s-12-16-29-19c0,0-4,9,0,38"/><path class="cls-4" d="M628.48,150s12-25,4-38c0,0-15,6-26,19"/><path class="cls-4" d="M346.35,429S216.48,447,157.48,632c0,0,93.52,150.27,133.69,151h.31"/><path class="cls-4" d="M596.16,429h0c1.29-.3,118.73-26.79,195.31,203,0,0-87,154-139,151"/><polygon class="cls-4" points="291.17 783.01 298.48 831.98 643.48 831.98 651.41 782.85 693.82 520 475.51 520 251.91 520 291.17 783.01"/><path class="cls-4" d="M522.62,676c0,23.39-22.27,42.35-49.75,42.35s-49.76-19-49.76-42.35,22.28-42.35,49.76-42.35S522.62,652.6,522.62,676Z"/><circle class="cls-4" cx="466.98" cy="466.98" r="466.48"/></g></g></svg>